<?xml version="1.0" encoding="iso-8859-1"?>
<!-- Generator: Adobe Illustrator 19.0.0, SVG Export Plug-In . SVG Version: 6.00 Build 0)  -->
<svg version="1.1" id="Capa_1" xmlns="http://www.w3.org/2000/svg" xmlns:xlink="http://www.w3.org/1999/xlink" x="0px" y="0px"
	 viewBox="0 0 288.324 288.324" style="enable-background:new 0 0 288.324 288.324;" xml:space="preserve">
<g>
	<path id="Subdirectory_Arrow_Right" d="M23.904,0c-6.641,0-12.03,5.39-12.03,12.03v168.051c0,6.641,5.39,12.03,12.03,12.03h211.709
		l-74.648,75.49c-4.704,4.74-4.704,12.427,0,17.167s12.319,4.74,17.011,0l95.027-96.098c4.74-4.788,4.547-12.884-0.313-17.48
		l-94.715-95.785c-4.704-4.74-12.319-4.74-17.011,0c-4.704,4.74-4.704,12.427,0,17.167l74.444,75.274H35.935V12.03
		C35.935,5.39,30.557,0,23.904,0z"/>
	<g>
	</g>
	<g>
	</g>
	<g>
	</g>
	<g>
	</g>
	<g>
	</g>
	<g>
	</g>
</g>
<g>
</g>
<g>
</g>
<g>
</g>
<g>
</g>
<g>
</g>
<g>
</g>
<g>
</g>
<g>
</g>
<g>
</g>
<g>
</g>
<g>
</g>
<g>
</g>
<g>
</g>
<g>
</g>
<g>
</g>
</svg>
